<svg width="400" height="400" viewBox="0 0 400 400" xmlns="http://www.w3.org/2000/svg">
  <rect width="400" height="400" fill="#1a1a2e" rx="20"/>
  <ellipse cx="200" cy="230" rx="60" ry="75" fill="#cc2200" stroke="#ff4422" stroke-width="1.5"/>
  <ellipse cx="200" cy="255" rx="38" ry="50" fill="#e84030" opacity="0.5"/>
  <ellipse cx="200" cy="148" rx="52" ry="48" fill="#cc2200" stroke="#ff4422" stroke-width="1.5"/>
  <circle cx="178" cy="138" r="14" fill="white"/>
  <circle cx="222" cy="138" r="14" fill="white"/>
  <circle cx="180" cy="138" r="8" fill="#111"/>
  <circle cx="224" cy="138" r="8" fill="#111"/>
  <circle cx="183" cy="134" r="3" fill="white"/>
  <circle cx="227" cy="134" r="3" fill="white"/>
  <path d="M185 105 Q160 70 130 40" fill="none" stroke="#cc2200" stroke-width="3" stroke-linecap="round"/>
  <path d="M215 105 Q240 70 270 40" fill="none" stroke="#cc2200" stroke-width="3" stroke-linecap="round"/>
  <circle cx="130" cy="40" r="4" fill="#ff4422"/>
  <circle cx="270" cy="40" r="4" fill="#ff4422"/>
  <path d="M188 102 Q170 80 155 65" fill="none" stroke="#cc2200" stroke-width="2" stroke-linecap="round"/>
  <path d="M212 102 Q230 80 245 65" fill="none" stroke="#cc2200" stroke-width="2" stroke-linecap="round"/>
  <path d="M182 160 Q200 175 218 160" fill="none" stroke="#222" stroke-width="2.5" stroke-linecap="round"/>
  <path d="M148 210 Q100 190 75 175" fill="none" stroke="#cc2200" stroke-width="10" stroke-linecap="round"/>
  <path d="M75 175 Q50 155 45 140" fill="none" stroke="#cc2200" stroke-width="8" stroke-linecap="round"/>
  <path d="M75 175 Q55 180 45 195" fill="none" stroke="#cc2200" stroke-width="8" stroke-linecap="round"/>
  <ellipse cx="43" cy="138" rx="12" ry="8" fill="#cc2200" stroke="#ff4422" stroke-width="1"/>
  <ellipse cx="43" cy="197" rx="12" ry="8" fill="#cc2200" stroke="#ff4422" stroke-width="1"/>
  <path d="M252 210 Q300 190 325 175" fill="none" stroke="#cc2200" stroke-width="10" stroke-linecap="round"/>
  <path d="M325 175 Q350 150 360 135" fill="none" stroke="#cc2200" stroke-width="8" stroke-linecap="round"/>
  <path d="M325 175 Q348 185 355 200" fill="none" stroke="#cc2200" stroke-width="8" stroke-linecap="round"/>
  <ellipse cx="362" cy="133" rx="12" ry="8" fill="#cc2200" stroke="#ff4422" stroke-width="1"/>
  <ellipse cx="357" cy="202" rx="12" ry="8" fill="#cc2200" stroke="#ff4422" stroke-width="1"/>
  <path d="M155 265 Q115 260 90 270" fill="none" stroke="#cc2200" stroke-width="6" stroke-linecap="round"/>
  <path d="M155 280 Q118 285 95 300" fill="none" stroke="#cc2200" stroke-width="6" stroke-linecap="round"/>
  <path d="M155 295 Q120 308 100 328" fill="none" stroke="#cc2200" stroke-width="6" stroke-linecap="round"/>
  <path d="M245 265 Q285 260 310 270" fill="none" stroke="#cc2200" stroke-width="6" stroke-linecap="round"/>
  <path d="M245 280 Q282 285 305 300" fill="none" stroke="#cc2200" stroke-width="6" stroke-linecap="round"/>
  <path d="M245 295 Q280 308 300 328" fill="none" stroke="#cc2200" stroke-width="6" stroke-linecap="round"/>
  <path d="M200 300 Q185 335 170 355" fill="none" stroke="#cc2200" stroke-width="8" stroke-linecap="round"/>
  <path d="M200 300 Q200 340 200 362" fill="none" stroke="#cc2200" stroke-width="10" stroke-linecap="round"/>
  <path d="M200 300 Q215 335 230 355" fill="none" stroke="#cc2200" stroke-width="8" stroke-linecap="round"/>
  <ellipse cx="170" cy="358" rx="14" ry="8" fill="#cc2200" stroke="#ff4422" stroke-width="1"/>
  <ellipse cx="200" cy="364" rx="14" ry="8" fill="#cc2200" stroke="#ff4422" stroke-width="1"/>
  <ellipse cx="230" cy="358" rx="14" ry="8" fill="#cc2200" stroke="#ff4422" stroke-width="1"/>
  <circle cx="200" cy="220" r="6" fill="none" stroke="#ff6644" stroke-width="1.5" opacity="0.7"/>
  <circle cx="200" cy="235" r="4" fill="none" stroke="#ff6644" stroke-width="1" opacity="0.5"/>
</svg>